<svg xmlns="http://www.w3.org/2000/svg" viewBox="0 0 1600 900" preserveAspectRatio="xMidYMid slice">
  <defs>
    <linearGradient id="sky" x1="0" y1="0" x2="0" y2="1">
      <stop offset="0" stop-color="#5ecfff"/>
      <stop offset=".58" stop-color="#bff2ff"/>
      <stop offset=".59" stop-color="#9eea70"/>
      <stop offset="1" stop-color="#50b957"/>
    </linearGradient>
    <radialGradient id="grassGlow" cx="50%" cy="76%" r="56%">
      <stop offset="0" stop-color="#c9ff7d" stop-opacity=".74"/>
      <stop offset=".55" stop-color="#77cf56" stop-opacity=".42"/>
      <stop offset="1" stop-color="#2e9848" stop-opacity="0"/>
    </radialGradient>
    <filter id="softShadow" x="-20%" y="-20%" width="140%" height="140%">
      <feDropShadow dx="0" dy="8" stdDeviation="6" flood-color="#2b6140" flood-opacity=".16"/>
    </filter>
  </defs>

  <rect width="1600" height="900" fill="url(#sky)"/>
  <circle cx="1325" cy="112" r="64" fill="#ffd75f"/>
  <circle cx="1325" cy="112" r="92" fill="#ffe687" opacity=".28"/>

  <g fill="#fff" opacity=".92" filter="url(#softShadow)">
    <ellipse cx="196" cy="130" rx="92" ry="38"/>
    <circle cx="138" cy="124" r="44"/>
    <circle cx="232" cy="105" r="54"/>
    <ellipse cx="750" cy="98" rx="112" ry="42"/>
    <circle cx="684" cy="94" r="42"/>
    <circle cx="790" cy="76" r="60"/>
    <ellipse cx="1120" cy="184" rx="84" ry="32"/>
    <circle cx="1076" cy="174" r="34"/>
    <circle cx="1146" cy="162" r="46"/>
  </g>

  <g opacity=".82">
    <circle cx="90" cy="145" r="34" fill="#ff7fa4"/>
    <rect x="88" y="179" width="4" height="86" rx="2" fill="#d86c80"/>
    <circle cx="154" cy="124" r="34" fill="#4ac8ec"/>
    <rect x="152" y="158" width="4" height="104" rx="2" fill="#54aabf"/>
    <circle cx="1448" cy="146" r="32" fill="#ffcc54"/>
    <rect x="1446" y="178" width="4" height="82" rx="2" fill="#c99a34"/>
  </g>

  <g opacity=".9">
    <path d="M0 407 C165 342 280 358 412 406 C520 446 631 434 750 390 C922 326 1054 358 1196 412 C1328 462 1437 448 1600 392 L1600 510 L0 510Z" fill="#b1dc74"/>
    <path d="M0 424 C180 380 300 390 452 430 C628 476 782 450 928 402 C1110 342 1288 400 1600 418 L1600 510 L0 510Z" fill="#7fc566" opacity=".9"/>
  </g>

  <g filter="url(#softShadow)">
    <rect x="-20" y="365" width="1640" height="38" fill="#f1b665"/>
    <rect x="-20" y="454" width="1640" height="38" fill="#e7a857"/>
    <g fill="#ffe1a0" stroke="#d6964b" stroke-width="6">
      <path d="M10 329 h42 l12 28 v171 h-76 V357Z"/>
      <path d="M88 329 h42 l12 28 v171 H76 V357Z"/>
      <path d="M166 329 h42 l12 28 v171 h-76 V357Z"/>
      <path d="M244 329 h42 l12 28 v171 h-76 V357Z"/>
      <path d="M322 329 h42 l12 28 v171 h-76 V357Z"/>
      <path d="M400 329 h42 l12 28 v171 h-76 V357Z"/>
      <path d="M478 329 h42 l12 28 v171 h-76 V357Z"/>
      <path d="M556 329 h42 l12 28 v171 h-76 V357Z"/>
      <path d="M634 329 h42 l12 28 v171 h-76 V357Z"/>
      <path d="M712 329 h42 l12 28 v171 h-76 V357Z"/>
      <path d="M790 329 h42 l12 28 v171 h-76 V357Z"/>
      <path d="M868 329 h42 l12 28 v171 h-76 V357Z"/>
      <path d="M946 329 h42 l12 28 v171 h-76 V357Z"/>
      <path d="M1024 329 h42 l12 28 v171 h-76 V357Z"/>
      <path d="M1102 329 h42 l12 28 v171 h-76 V357Z"/>
      <path d="M1180 329 h42 l12 28 v171 h-76 V357Z"/>
      <path d="M1258 329 h42 l12 28 v171 h-76 V357Z"/>
      <path d="M1336 329 h42 l12 28 v171 h-76 V357Z"/>
      <path d="M1414 329 h42 l12 28 v171 h-76 V357Z"/>
      <path d="M1492 329 h42 l12 28 v171 h-76 V357Z"/>
    </g>
  </g>

  <g opacity=".92" filter="url(#softShadow)">
    <path d="M42 590 h174 v118 H42Z" fill="#ffd57a"/>
    <path d="M22 590 L130 504 l236 86Z" fill="#ff7764"/>
    <path d="M104 662 a42 42 0 0 1 84 0 v46 h-84Z" fill="#6c4a39"/>
    <path d="M1367 588 h172 v118 h-172Z" fill="#8de2ff"/>
    <path d="M1342 588 l110 -84 238 84Z" fill="#5ca7ff"/>
    <path d="M1434 661 a42 42 0 0 1 84 0 v45 h-84Z" fill="#5d4b4a"/>
  </g>

  <rect y="488" width="1600" height="412" fill="url(#grassGlow)"/>
  <ellipse cx="800" cy="738" rx="610" ry="172" fill="#d4ff80" opacity=".24"/>
  <ellipse cx="800" cy="756" rx="500" ry="118" fill="#e9ff91" opacity=".18"/>

  <g opacity=".36" fill="#277d3e">
    <path d="M80 740 q22 -30 46 0 q-24 -16 -46 0Z"/>
    <path d="M245 804 q18 -28 42 0 q-22 -14 -42 0Z"/>
    <path d="M1320 782 q18 -30 44 0 q-24 -16 -44 0Z"/>
    <path d="M1488 730 q20 -32 48 0 q-25 -18 -48 0Z"/>
    <path d="M620 840 q18 -30 42 0 q-23 -15 -42 0Z"/>
    <path d="M1000 848 q20 -30 46 0 q-24 -16 -46 0Z"/>
  </g>

  <g opacity=".9">
    <circle cx="250" cy="678" r="16" fill="#ff7ea6"/>
    <circle cx="284" cy="680" r="12" fill="#ffd85a"/>
    <circle cx="1288" cy="690" r="15" fill="#ff7ea6"/>
    <circle cx="1244" cy="690" r="11" fill="#58c7ff"/>
    <rect x="712" y="454" width="18" height="18" rx="3" fill="#ffcc54" transform="rotate(22 721 463)"/>
    <rect x="1082" y="322" width="15" height="15" rx="3" fill="#ff7d6d" transform="rotate(-18 1090 330)"/>
    <rect x="420" y="286" width="16" height="16" rx="3" fill="#ffe365" transform="rotate(35 428 294)"/>
  </g>
</svg>
